<?xml version="1.0" encoding="utf-8"?>
<!-- Generator: Adobe Illustrator 25.4.1, SVG Export Plug-In . SVG Version: 6.00 Build 0)  -->
<svg version="1.1" xmlns="http://www.w3.org/2000/svg" xmlns:xlink="http://www.w3.org/1999/xlink" x="0px" y="0px"
	 viewBox="0 0 220 220" style="enable-background:new 0 0 220 220;" xml:space="preserve">
<style type="text/css">
	.st0{fill:#2D1F66;stroke:#FFFFFF;stroke-width:4;stroke-miterlimit:10;}
	.st1{fill:#FFFFFF;}
</style>
<g id="Layer_1">
	<polygon class="st0" points="213.6,122.1 110.6,19.1 9.4,120.4 41.4,120.6 41.4,200 181.6,200 181.6,121.8 	"/>
</g>
<g id="Layer_2">
	<circle class="st1" cx="94.1" cy="130.1" r="1.2"/>
	<circle class="st1" cx="116.3" cy="123.9" r="1.2"/>
	<circle class="st1" cx="106.7" cy="153" r="1.2"/>
	<circle class="st1" cx="90.2" cy="154.8" r="0.7"/>
	<circle class="st1" cx="84.3" cy="142" r="0.9"/>
	<circle class="st1" cx="83.9" cy="159.2" r="0.4"/>
	<circle class="st1" cx="106.3" cy="173.9" r="1.2"/>
	<circle class="st1" cx="70.2" cy="174.8" r="0.7"/>
	<circle class="st1" cx="64.9" cy="169.2" r="0.4"/>
	<circle class="st1" cx="134.9" cy="99.2" r="0.4"/>
	<circle class="st1" cx="125.2" cy="88.4" r="1.2"/>
	<circle class="st1" cx="115.2" cy="109.1" r="1.2"/>
	<circle class="st1" cx="99.8" cy="82.6" r="1.2"/>
	<circle class="st1" cx="109.3" cy="69.1" r="0.7"/>
	<circle class="st1" cx="112" cy="86.7" r="1.8"/>
	<circle class="st1" cx="84.8" cy="89.1" r="1.1"/>
	<circle class="st1" cx="102.4" cy="107.5" r="3.2"/>
	<circle class="st1" cx="122.8" cy="73.1" r="0.9"/>
	<ellipse transform="matrix(0.6632 -0.7485 0.7485 0.6632 -8.8555 103.1996)" class="st1" cx="110.2" cy="61.4" rx="0.4" ry="0.4"/>
	<circle class="st1" cx="84.4" cy="68.5" r="1.2"/>
	<circle class="st1" cx="107.6" cy="40.8" r="0.7"/>
	<circle class="st1" cx="115.3" cy="40.6" r="0.4"/>
	<circle class="st1" cx="121.3" cy="139.4" r="0.4"/>
	<circle class="st1" cx="52.4" cy="118.9" r="1"/>
	<circle class="st1" cx="35.4" cy="111.1" r="1"/>
	<circle class="st1" cx="56.6" cy="98.1" r="1"/>
	<circle class="st1" cx="67.7" cy="105.6" r="0.6"/>
	<circle class="st1" cx="53.5" cy="108.1" r="1.5"/>
	<circle class="st1" cx="51" cy="86.1" r="0.9"/>
	<circle class="st1" cx="64.7" cy="116.6" r="0.7"/>
	<circle class="st1" cx="74" cy="106.2" r="0.3"/>
	<circle class="st1" cx="67.7" cy="85.3" r="1"/>
	<circle class="st1" cx="90.6" cy="103.7" r="0.6"/>
	<g>
		<circle class="st1" cx="91" cy="109.9" r="0.3"/>
	</g>
	<circle class="st1" cx="134.8" cy="182.6" r="0.9"/>
	<circle class="st1" cx="118.7" cy="175.3" r="0.9"/>
	<circle class="st1" cx="138.7" cy="162.9" r="0.9"/>
	<circle class="st1" cx="149.3" cy="170.1" r="0.5"/>
	<circle class="st1" cx="135.8" cy="172.5" r="1.4"/>
	<circle class="st1" cx="133.4" cy="151.6" r="0.8"/>
	<circle class="st1" cx="146.4" cy="180.5" r="0.7"/>
	<circle class="st1" cx="155.2" cy="170.6" r="0.3"/>
	<circle class="st1" cx="149.3" cy="150.9" r="0.9"/>
	<circle class="st1" cx="170.9" cy="168.2" r="0.5"/>
	<circle class="st1" cx="171.3" cy="174.1" r="0.3"/>
	<circle class="st1" cx="95.5" cy="180.6" r="0.3"/>
	<g>
		<circle class="st1" cx="153.4" cy="132.9" r="1"/>
	</g>
	<g>
		<circle class="st1" cx="142.1" cy="118.2" r="1"/>
	</g>
	<g>
		<circle class="st1" cx="166.7" cy="116.5" r="1"/>
	</g>
	<g>
		<circle class="st1" cx="173" cy="128.3" r="0.6"/>
	</g>
	<g>
		<circle class="st1" cx="159.4" cy="123.9" r="1.4"/>
	</g>
	<g>
		<circle class="st1" cx="167.4" cy="103.4" r="0.9"/>
	</g>
	<g>
		<circle class="st1" cx="165.3" cy="136.6" r="0.7"/>
	</g>
	<g>
		<circle class="st1" cx="178.2" cy="131.7" r="0.3"/>
	</g>
	<g>
		<circle class="st1" cx="182.4" cy="110.5" r="1"/>
	</g>
	<g>
		<circle class="st1" cx="118" cy="111.7" r="0.3"/>
	</g>
	<g>
		<circle class="st1" cx="151" cy="86.1" r="2.7"/>
	</g>
</g>
</svg>
