<?xml version="1.0" encoding="utf-8"?>
<!-- Generator: Adobe Illustrator 25.4.1, SVG Export Plug-In . SVG Version: 6.00 Build 0)  -->
<svg version="1.1" xmlns="http://www.w3.org/2000/svg" xmlns:xlink="http://www.w3.org/1999/xlink" x="0px" y="0px"
	 viewBox="0 0 220 220" style="enable-background:new 0 0 220 220;" xml:space="preserve">
<style type="text/css">
	.st0{display:none;}
	.st1{display:inline;fill:#332E83;}
	.st2{fill:#AD9BF6;}
	.st3{fill:#7156D9;}
	.st4{fill:#3F20BA;}
	.st5{fill:#2D1F66;}
	.st6{clip-path:url(#SVGID_00000119111553849484572950000017931270945012512428_);fill:#FFFFFF;}
	.st7{display:inline;fill:#FFFFFF;}
	.st8{display:inline;fill:#322F83;}
</style>
<g id="Layer_1" class="st0">
	<path class="st1" d="M80.6,18.8c18.7,0,34.3-0.1,49.8,0c10.8,0.1,21.7,0.5,32.5,0.9c11.8,0.4,21.7,7,32.4,10.8
		c1.6,0.6,2.8,3.9,3.3,6.2c1.3,6.7,2.9,13.5,2.9,20.3c0,13.9-1,27.7-1.4,41.6c-0.2,5.3-0.3,10.7,0.3,16c2.2,21.8,0.6,43.2-4.4,64.5
		c-3.3,14-12,20.3-28.4,21.7c-3.9,0.3-7.9-0.3-11.9-0.2c-23.9,0.7-47.8,2.1-71.7,2c-13.2,0-26.6-1.5-39.5-4.1
		c-11.7-2.4-22.1-8.2-26.3-20.8c-0.7-2.1-1-4.5-1-6.8c-0.4-24.9-1.1-49.7-1-74.6c0-14,1-28,2.3-42c0.5-6,2.5-11.9,4.6-17.6
		c3.2-8.6,10.6-12.9,18.9-14.2C55.7,20.6,69.7,19.9,80.6,18.8z M30.7,145.2c0.2,0,0.3,0,0.5,0c0,7.9-0.1,15.9,0,23.8
		c0.1,6.6,8.7,15.1,15,15.6c7.1,0.5,14.7-1.6,21,3.7c0.5,0.4,1.5,0.2,2.2,0.2c5.5-0.2,11-0.6,16.5-0.6c16.8-0.2,33.6-0.4,50.3-0.2
		c10.2,0.2,20.4,1.9,30.6,1.7c11.9-0.3,17-4.1,18.7-14.1c3-17.8,4.1-35.7,3-53.7c-0.4-7-1.2-14-0.6-21c1.6-18,1-35.9-0.9-53.9
		c-0.5-5-2.8-8.8-7.3-10.8c-4-1.7-8.3-3.8-12.5-4c-14.6-0.6-29.3-0.9-43.9-0.5c-17.2,0.4-34.4,1.3-51.6,2.5
		c-8.8,0.6-17.6,2-26.3,3.5c-5.5,0.9-8.8,4.1-10.8,9.8c-3.9,11.3-5.3,22.8-5.1,34.6C29.7,102.8,30.2,124,30.7,145.2z"/>
	<path class="st1" d="M41.9,57c0-4.5,0.6-5,2.6-8c3.9-5.6,8.6-9.8,16-10.1c7.8-0.4,15.5-1.4,23.2-1.3c23.8,0.3,47.6,0.7,71.3,1.8
		c5.1,0.2,10.4,3,15.1,5.5c3.7,2,5.7,5.7,5.8,10.3c0.2,25.6,0.8,51.2,0.5,76.8c-0.1,9.2-1.4,18.6-3.5,27.6
		c-2.2,9.3-7.5,16.6-18.4,17.3c-5.9,0.4-11.9,1.4-17.8,1.3c-19.8-0.5-39.6-1.3-59.4-2.3c-7.9-0.4-15.8-1.2-23.5-2.5
		c-9.4-1.5-12.4-5.2-12.6-14.9c-0.2-6.9,0.2-13.7,0-20.6c-0.2-11.3-0.7-22.5-0.9-33.8C40,87.7,39.7,73.2,41.9,57z M55.1,46.9
		c0.3,0.4,0.6,0.8,1,1.2c-0.8,2.2-1.6,4.4-2.5,6.5c-0.6,1.4-1.8,2.6-2,4c-1.7,9.7-4.2,19.4-4.6,29.2c-0.7,18.7-0.1,37.5,0,56.3
		c0,5.5,0.2,11,0.6,16.4c0.2,3.7,2.3,5.8,6.1,6.1c8.3,0.8,16.6,1.8,24.9,2.6c24.8,2.5,49.6,3.3,74.4,1.7c7.7-0.5,13.1-4.9,14.5-12.4
		c1.3-6.4,2.5-12.9,2.6-19.4c0.4-26.7,0.1-53.3,0.5-80c0.1-5.2-1.8-8.5-6.2-10.6c-2.3-1.1-4.8-2.2-7.3-2.4
		c-7.6-0.7-15.2-1.4-22.8-1.5c-21-0.2-42.1-0.2-63.1,0.1C65.8,44.7,60.5,46.2,55.1,46.9z"/>
	<path class="st1" d="M162.3,105.4c0,13.5,0.2,27.1-0.1,40.6c-0.2,6.3-3.7,10.8-8.1,15.6c-6,6.4-12.7,6.6-20.1,6.6
		c-17.4,0-34.8-0.1-52.2,0c-8.8,0.1-16.4-3.4-23.5-7.9c-2.1-1.4-4-5-4-7.6c0.1-18.3,0.4-36.6,1.1-54.8c0.3-7.8,1.3-15.5,2.4-23.2
		c0.3-2.3,1.7-5,3.5-6.3C71.1,61.1,82,57.2,94.5,57c17-0.2,33.8,1.8,50.5,4.6c3.5,0.6,7,0.7,10.4,1.2c3.9,0.6,6.3,2.4,6.3,6.9
		c-0.1,11.9-0.1,23.8-0.1,35.6C161.8,105.4,162,105.4,162.3,105.4z M122.6,160.9c0-0.5,0-0.9,0-1.4c8.8,0,17.7,0.2,26.5-0.1
		c5.1-0.2,8.4-3.1,9.1-8c1-7.4,2-14.9,1.7-22.3c-0.7-18.7-2.1-37.4-3-56.1c-0.2-4.2-1.9-6.7-5.9-7.4c-6-1.1-12-2.5-18-2.6
		c-8.5-0.2-17.1,0.4-25.6,0.9c-11.8,0.8-23.7,1.6-35.5,2.8c-6,0.6-8.6,3.3-9.4,8.9c-1.2,8.1-2.8,16.3-3.1,24.4
		c-0.5,17.2-0.2,34.4,0,51.6c0,1.5,1.7,3.9,3.1,4.4c6,2,12.1,4.4,18.3,4.7C94.9,161.4,108.8,160.9,122.6,160.9z"/>
	<path class="st1" d="M151.1,111.7c-0.4,7.3,0,14.8-1.4,21.9c-2.8,14.9-6.9,16.4-19.8,17.7c-8.9,0.9-18,0.2-27,0.1
		c-7,0-14-0.1-21-0.2c-8.3-0.1-11.6-2.3-13-10.4c-3.4-19.4-3.8-38.8,2.7-57.7c2.2-6.3,6.8-10.3,13.3-9.8c8.9,0.8,17.3-1,25.8-2.5
		c10.5-1.8,20.7,0.1,30.9,2.2c4.5,0.9,7.3,4,7.7,8.6c1,10,1.7,20,2.5,30C151.5,111.7,151.3,111.7,151.1,111.7z M128.2,131.7
		c-25-6.6-34-21.7-27.4-45.7c-10.1,2.9-13.2,22.8-9.5,32.5C96,130.8,112.1,135.8,128.2,131.7z M136.4,89.7c0.1-5-3.3-9.3-7.4-9.3
		c-3.4,0-6,3.9-6.2,9.2c-0.1,3.4,3.6,6.6,7.8,6.7C134.4,96.3,136.3,94.1,136.4,89.7z"/>
	<path class="st1" d="M130.8,89c-0.4,1.1-0.8,2.1-1.2,3.2c-0.6-0.8-1.2-1.6-1.6-2.5c-0.4-0.8-0.9-1.8-1-2.7c0-1.2,0-2.8,0.7-3.5
		c0.5-0.5,2.8-0.5,3.1,0.1c0.5,0.9,0.1,2.3,0.1,3.6c0,0.6-0.1,1.3-0.1,1.9L130.8,89z"/>
</g>
<g id="Layer_2">
	<path class="st2" d="M189.4,208.1H31.3c-11,0-20-9-20-20V30.1c0-11,9-20,20-20h158.1c11,0,20,9,20,20v158.1
		C209.4,199.1,200.4,208.1,189.4,208.1z"/>
	<path class="st3" d="M177.1,191.8H43.6c-8.8,0-16-7.2-16-16V42.4c0-8.8,7.2-16,16-16h133.5c8.8,0,16,7.2,16,16v133.5
		C193.1,184.6,185.9,191.8,177.1,191.8z"/>
	<path class="st4" d="M163.5,174.3H57.1c-6.6,0-12-5.4-12-12V55.9c0-6.6,5.4-12,12-12h106.4c6.6,0,12,5.4,12,12v106.4
		C175.5,168.9,170.1,174.3,163.5,174.3z"/>
	<path class="st5" d="M152.9,158.7H67.8c-3.8,0-7-3.2-7-7V66.6c0-3.8,3.2-7,7-7h85.1c3.9,0,7,3.2,7,7v85.1
		C159.9,155.5,156.7,158.7,152.9,158.7z"/>
	<g id="Layer_4">
		<defs>
			<path id="SVGID_1_" d="M152.9,158.7H67.8c-3.8,0-7-3.2-7-7V66.6c0-3.8,3.2-7,7-7h85.1c3.9,0,7,3.2,7,7v85.1
				C159.9,155.5,156.7,158.7,152.9,158.7z"/>
		</defs>
		<clipPath id="SVGID_00000139973022049867897700000013454551395212191116_">
			<use xlink:href="#SVGID_1_"  style="overflow:visible;"/>
		</clipPath>
		
			<circle style="clip-path:url(#SVGID_00000139973022049867897700000013454551395212191116_);fill:#FFFFFF;" cx="90.6" cy="87.8" r="2"/>
		
			<circle style="clip-path:url(#SVGID_00000139973022049867897700000013454551395212191116_);fill:#FFFFFF;" cx="99.3" cy="100.3" r="1.2"/>
		
			<circle style="clip-path:url(#SVGID_00000139973022049867897700000013454551395212191116_);fill:#FFFFFF;" cx="121.5" cy="94.1" r="1.2"/>
		
			<circle style="clip-path:url(#SVGID_00000139973022049867897700000013454551395212191116_);fill:#FFFFFF;" cx="111.9" cy="123.2" r="1.2"/>
		
			<circle style="clip-path:url(#SVGID_00000139973022049867897700000013454551395212191116_);fill:#FFFFFF;" cx="95.4" cy="125" r="0.7"/>
		
			<circle style="clip-path:url(#SVGID_00000139973022049867897700000013454551395212191116_);fill:#FFFFFF;" cx="106.8" cy="111.3" r="1.8"/>
		
			<circle style="clip-path:url(#SVGID_00000139973022049867897700000013454551395212191116_);fill:#FFFFFF;" cx="126.7" cy="130.1" r="1.1"/>
		
			<circle style="clip-path:url(#SVGID_00000139973022049867897700000013454551395212191116_);fill:#FFFFFF;" cx="128.8" cy="104.7" r="3.2"/>
		
			<circle style="clip-path:url(#SVGID_00000139973022049867897700000013454551395212191116_);fill:#FFFFFF;" cx="89.5" cy="112.2" r="0.9"/>
		
			<circle style="clip-path:url(#SVGID_00000139973022049867897700000013454551395212191116_);fill:#FFFFFF;" cx="89.1" cy="129.4" r="0.4"/>
		
			<circle style="clip-path:url(#SVGID_00000139973022049867897700000013454551395212191116_);fill:#FFFFFF;" cx="111.5" cy="144.1" r="1.2"/>
		
			<circle style="clip-path:url(#SVGID_00000139973022049867897700000013454551395212191116_);fill:#FFFFFF;" cx="75.4" cy="145" r="0.7"/>
		
			<circle style="clip-path:url(#SVGID_00000139973022049867897700000013454551395212191116_);fill:#FFFFFF;" cx="70.1" cy="139.4" r="0.4"/>
		
			<circle style="clip-path:url(#SVGID_00000139973022049867897700000013454551395212191116_);fill:#FFFFFF;" cx="140.1" cy="69.4" r="0.4"/>
		
			<circle style="clip-path:url(#SVGID_00000139973022049867897700000013454551395212191116_);fill:#FFFFFF;" cx="159.8" cy="111.3" r="1.8"/>
	</g>
	<g class="st0">
		<circle class="st7" cx="100.1" cy="118.1" r="25.7"/>
		<circle class="st8" cx="111.6" cy="108" r="25.7"/>
	</g>
	<g id="Layer_3" class="st0">
		<circle class="st7" cx="110" cy="101.9" r="6"/>
		<polygon class="st7" points="115.9,122.5 104.1,122.5 107.5,104.8 112.5,104.8 		"/>
	</g>
</g>
</svg>
